<svg width="16" height="16" viewBox="0 0 16 16" fill="none" xmlns="http://www.w3.org/2000/svg">
<path d="M0.5 0.5H3.5L4.5 9.5H13.5L15.5 3.5H6.5" stroke="black" stroke-linecap="round" stroke-linejoin="round"/>
<path fill-rule="evenodd" clip-rule="evenodd" d="M5 15.5C5.82843 15.5 6.5 14.8284 6.5 14C6.5 13.1716 5.82843 12.5 5 12.5C4.17157 12.5 3.5 13.1716 3.5 14C3.5 14.8284 4.17157 15.5 5 15.5Z" stroke="black" stroke-linecap="round" stroke-linejoin="round"/>
<path fill-rule="evenodd" clip-rule="evenodd" d="M13 15.5C13.8284 15.5 14.5 14.8284 14.5 14C14.5 13.1716 13.8284 12.5 13 12.5C12.1716 12.5 11.5 13.1716 11.5 14C11.5 14.8284 12.1716 15.5 13 15.5Z" stroke="black" stroke-linecap="round" stroke-linejoin="round"/>
</svg>
