<?xml version="1.0" encoding="UTF-8"?>
<svg width="16px" height="16px" viewBox="0 0 16 16" version="1.1" xmlns="http://www.w3.org/2000/svg" xmlns:xlink="http://www.w3.org/1999/xlink">
    <!-- Generator: Sketch 61.2 (89653) - https://sketch.com -->
    <title>ic_brochure</title>
    <desc>Created with Sketch.</desc>
    <g id="Products" stroke="none" stroke-width="1" fill="none" fill-rule="evenodd" stroke-linecap="round" stroke-linejoin="round">
        <g id="product_ProEX_mobile" transform="translate(-150.000000, -570.000000)" stroke="#14689D">
            <g id="product-hero" transform="translate(150.000000, 165.000000)">
                <g id="link" transform="translate(0.000000, 403.000000)">
                    <g id="ic_brochure" transform="translate(0.000000, 2.000000)">
                        <line x1="3.5" y1="3.5" x2="10.5" y2="3.5" id="Path"></line>
                        <line x1="3.5" y1="6.5" x2="10.5" y2="6.5" id="Path"></line>
                        <line x1="3.5" y1="9.5" x2="10.5" y2="9.5" id="Path"></line>
                        <path d="M13.5,10.5 L13.5,0.5 L0.5,0.5 L0.5,13.5 C0.5,14.605 1.395,15.5 2.5,15.5 L2.5,15.5 L2.5,15.5 C3.605,15.5 4.5,14.605 4.5,13.5 L4.5,12.5 L15.5,12.5 L15.5,13 C15.5,14.381 14.381,15.5 13,15.5 L2.5,15.5" id="Path"></path>
                    </g>
                </g>
            </g>
        </g>
    </g>
</svg>