<svg xmlns="http://www.w3.org/2000/svg" xmlns:xlink="http://www.w3.org/1999/xlink" width="62" height="62"><defs><path d="M24 0C10.8 0 0 10.8 0 24s10.8 24 24 24 24-10.8 24-24S37.2 0 24 0z" id="A"/><filter x="-25.0%" y="-18.8%" width="150.0%" height="150.0%" id="B"><feMorphology radius="0.5" operator="dilate" in="SourceAlpha"/><feOffset dy="3"/><feGaussianBlur stdDeviation="3"/><feColorMatrix values="0 0 0 0 0.0431372549 0 0 0 0 0.490196078 0 0 0 0 0.431372549 0 0 0 0.201923077 0"/></filter></defs><g transform="translate(7 4)" fill-rule="evenodd"><use fill="#000" filter="url(#B)" xlink:href="#A"/><use fill="#fff" xlink:href="#A"/><path d="M32.4 25.2l-12 9c-.3.15-.6.3-.9.3s-.45 0-.6-.15c-.6-.3-.9-.75-.9-1.35V15c0-.6.3-1.05.9-1.35.45-.3 1.05-.15 1.5.15l12 9c.45.3.6.75.6 1.2s-.15.9-.6 1.2z" fill="#00d0b5" fill-rule="nonzero"/></g></svg>