<svg xmlns="http://www.w3.org/2000/svg" width="78" height="64" viewBox="0 0 78 64"><path d="M60.694,64c-5.789,0-10.262-2.117-13.295-6.293C44.48,53.689,43,47.928,43,40.585a50.886,50.886,0,0,1,2.266-15.506A37.19,37.19,0,0,1,51.8,12.829,33.864,33.864,0,0,1,62.2,4.311,40.755,40.755,0,0,1,76.055,0V13.658c-9.268,1.3-16.528,8.844-16.528,17.171,5.444,0,10.05,1.5,13.32,4.342C76.218,38.1,78,42.333,78,47.415A15.434,15.434,0,0,1,67.5,62.89,20.447,20.447,0,0,1,60.694,64Zm-43,0C11.905,64,7.432,61.883,4.4,57.707,1.48,53.689,0,47.928,0,40.585A50.886,50.886,0,0,1,2.266,25.079,37.19,37.19,0,0,1,8.8,12.829,33.864,33.864,0,0,1,19.2,4.311,40.755,40.755,0,0,1,33.055,0V13.658c-9.268,1.3-16.528,8.844-16.528,17.171,5.444,0,10.05,1.5,13.32,4.342C33.218,38.1,35,42.333,35,47.415a16.008,16.008,0,0,1-5.007,12.244A15.99,15.99,0,0,1,24.5,62.89,20.447,20.447,0,0,1,17.694,64Z" transform="translate(0 0)" fill="#e600bd"/></svg>