<svg xmlns="http://www.w3.org/2000/svg" width="78" height="64" viewBox="0 0 39 32">
  <path id="_" data-name="“" d="M30.347,32C24.642,32,21.5,27.842,21.5,20.292c0-5.549,1.521-10.348,4.4-13.878a16.932,16.932,0,0,1,5.2-4.259A20.38,20.38,0,0,1,38.028,0V6.829c-4.634.651-8.264,4.422-8.264,8.585a9.973,9.973,0,0,1,6.659,2.171A7.82,7.82,0,0,1,39,23.707a8.006,8.006,0,0,1-2.5,6.122A9.063,9.063,0,0,1,30.347,32Zm-21.5,0C3.142,32,0,27.842,0,20.292,0,14.743,1.521,9.945,4.4,6.415A16.933,16.933,0,0,1,9.6,2.156,20.379,20.379,0,0,1,16.528,0V6.829c-4.634.651-8.264,4.422-8.264,8.585a9.973,9.973,0,0,1,6.659,2.171A7.82,7.82,0,0,1,17.5,23.707,8.006,8.006,0,0,1,15,29.829,9.063,9.063,0,0,1,8.847,32Z" fill="#333333"/>
</svg>
